<?xml version="1.0" encoding="utf-8"?>
<!-- Generator: Adobe Illustrator 25.0.0, SVG Export Plug-In . SVG Version: 6.00 Build 0)  -->
<svg version="1.1" id="Layer_1" xmlns="http://www.w3.org/2000/svg" xmlns:xlink="http://www.w3.org/1999/xlink" x="0px" y="0px"
	 viewBox="0 0 372 164" style="enable-background:new 0 0 372 164;" xml:space="preserve">
<g>
	<path d="M176.66,113.93l-5.43,13.27h1.31l1.31-3.26h7.02l1.31,3.26h1.31l-5.43-13.27H176.66z M174.24,122.9l3.12-7.76l3.14,7.76
		H174.24z"/>
	<rect x="187.04" y="113.93" width="1.13" height="13.27"/>
	<polygon points="199.8,127.2 200.94,127.2 200.94,120.91 208.08,120.91 208.08,119.88 200.94,119.88 200.94,114.97 208.21,114.97 
		208.21,113.93 199.8,113.93 	"/>
	<path d="M218.11,113.71c-3.9,0-6.44,2.98-6.44,6.86s2.55,6.86,6.44,6.86c3.88,0,6.45-2.98,6.45-6.86S221.99,113.71,218.11,113.71z
		 M218.11,126.4c-3.22,0-5.25-2.49-5.25-5.83c0-3.38,2.03-5.83,5.25-5.83c3.18,0,5.25,2.45,5.25,5.83
		C223.37,123.91,221.3,126.4,218.11,126.4z"/>
	<path d="M237.93,117.81c0-2.43-1.75-3.88-4.04-3.88h-4.95v13.27h1.13v-5.49H233l3.72,5.49h1.37l-3.84-5.57
		C236.22,121.55,237.93,120.22,237.93,117.81z M230.08,120.67v-5.71h3.72c1.75,0,2.94,1.17,2.94,2.84s-1.19,2.86-2.94,2.86H230.08z"
		/>
	<polygon points="249.08,127.2 257.5,127.2 257.5,126.16 250.22,126.16 250.22,120.91 257.36,120.91 257.36,119.88 250.22,119.88 
		250.22,114.97 257.5,114.97 257.5,113.93 249.08,113.93 	"/>
	<polygon points="266.66,125.92 261.85,113.93 260.53,113.93 265.96,127.2 267.38,127.2 272.8,113.93 271.49,113.93 	"/>
	<polygon points="276.34,127.2 284.75,127.2 284.75,126.16 277.47,126.16 277.47,120.91 284.61,120.91 284.61,119.88 277.47,119.88 
		277.47,114.97 284.75,114.97 284.75,113.93 276.34,113.93 	"/>
	<path d="M298.13,117.81c0-2.43-1.75-3.88-4.04-3.88h-4.95v13.27h1.13v-5.49h2.92l3.72,5.49h1.37l-3.84-5.57
		C296.42,121.55,298.13,120.22,298.13,117.81z M290.28,120.67v-5.71h3.72c1.75,0,2.94,1.17,2.94,2.84s-1.19,2.86-2.94,2.86H290.28z"
		/>
	<polygon points="306.74,120.45 302.26,113.93 300.89,113.93 306.16,121.53 306.16,127.2 307.31,127.2 307.31,121.53 312.58,113.93 
		311.21,113.93 	"/>
	<path d="M321.27,113.71c-3.9,0-6.44,2.98-6.44,6.86s2.55,6.86,6.44,6.86c3.88,0,6.45-2.98,6.45-6.86S325.15,113.71,321.27,113.71z
		 M321.27,126.4c-3.22,0-5.25-2.49-5.25-5.83c0-3.38,2.03-5.83,5.25-5.83c3.18,0,5.25,2.45,5.25,5.83
		C326.52,123.91,324.45,126.4,321.27,126.4z"/>
	<polygon points="341.57,125.17 333.26,113.93 332.1,113.93 332.1,127.2 333.24,127.2 333.24,115.8 341.59,127.2 342.7,127.2 
		342.7,113.93 341.57,113.93 	"/>
	<polygon points="356,114.97 356,113.93 347.59,113.93 347.59,127.2 356,127.2 356,126.16 348.72,126.16 348.72,120.91 
		355.86,120.91 355.86,119.88 348.72,119.88 348.72,114.97 	"/>
</g>
<g>
	<path d="M201.34,97.5l-1.45-10.47l-1.37,0.23c-0.85,0.14-1.76,0.27-2.72,0.37c-0.93,0.1-2.04,0.16-3.3,0.16
		c-2.34,0-4.01-0.43-4.95-1.29c-0.51-0.46-1.36-1.83-1.36-5.79V56.1h13.15V44.96h-13.15V27.88h-11.8v17.09h-8.54V56.1h8.54v25.6
		c0,6.13,1.42,10.57,4.2,13.2c2.77,2.61,6.89,3.93,12.27,3.93c2.1,0,3.97-0.12,5.56-0.34c1.6-0.23,2.83-0.45,3.75-0.68L201.34,97.5z
		"/>
	<path d="M237.6,46.93c-2.24,0.92-4.21,1.85-5.86,2.78l-0.75-4.74h-10.38v53.2h12.02V61.23c1.77-0.99,3.87-1.95,6.25-2.86
		c2.68-1.02,5.66-1.83,8.85-2.4l1.11-0.2V43.82l-1.6,0.29C243.95,44.71,240.7,45.66,237.6,46.93z"/>
	<path d="M302.7,91.82c2.35-2.27,4.24-5.14,5.62-8.51c1.37-3.36,2.07-7.26,2.07-11.58c0-4.31-0.7-8.23-2.07-11.63
		c-1.38-3.41-3.27-6.31-5.62-8.62c-2.35-2.31-5.09-4.1-8.17-5.33c-6.14-2.46-13.07-2.45-19.14,0c-3.04,1.23-5.75,3.03-8.06,5.34
		c-2.31,2.31-4.18,5.2-5.56,8.61c-1.37,3.4-2.07,7.31-2.07,11.63c0,4.32,0.7,8.21,2.07,11.58c1.38,3.37,3.25,6.23,5.56,8.5
		c2.31,2.27,5.02,4.03,8.07,5.22c3.03,1.19,6.24,1.79,9.53,1.79c3.29,0,6.51-0.6,9.58-1.79C297.6,95.84,300.35,94.09,302.7,91.82z
		 M298.38,71.73c0,2.52-0.38,4.79-1.12,6.75c-0.74,1.95-1.73,3.61-2.96,4.93c-1.21,1.31-2.64,2.33-4.25,3.02
		c-3.29,1.41-7.18,1.35-10.26,0c-1.57-0.69-2.96-1.7-4.14-3.01c-1.19-1.32-2.15-2.98-2.86-4.92c-0.71-1.96-1.07-4.24-1.07-6.77
		c0-2.46,0.36-4.72,1.07-6.72c0.71-1.99,1.67-3.71,2.87-5.11c1.18-1.37,2.57-2.44,4.14-3.16c1.57-0.72,3.3-1.08,5.13-1.08
		c1.77,0,3.48,0.37,5.09,1.09c1.61,0.72,3.04,1.79,4.25,3.17c1.23,1.4,2.24,3.12,2.98,5.11C298,67.02,298.38,69.28,298.38,71.73z"/>
	<path d="M353.77,55.77V43.82l-1.6,0.29c-3.29,0.6-6.54,1.55-9.64,2.82c-2.24,0.92-4.21,1.85-5.86,2.78l-0.75-4.74h-10.38v53.2
		h12.02V61.23c1.77-0.99,3.87-1.95,6.25-2.86c2.68-1.02,5.66-1.83,8.85-2.4L353.77,55.77z"/>
</g>
<path d="M133.03,50.76c0-1.83-1.31-2.59-1.81-2.88c0,0-48.76-28.14-55.37-31.97c-1.2-0.7-2.42-0.7-3.62,0
	C66.09,19.5,28.71,41.08,17.01,47.8c-1.33,0.76-1.97,1.89-1.96,3.46c0.04,6.58,0.02,48.65,0,62.74c0,1.42,0.61,2.48,1.83,3.15
	c2.13,1.18,48.67,28.09,55.26,31.91c0.65,0.38,1.29,0.57,1.93,0.57c0.63,0,1.26-0.19,1.89-0.55c5.93-3.46,44.95-25.99,55.22-31.9
	c1.25-0.72,1.85-1.78,1.85-3.26C133.01,105.55,133.01,59.16,133.03,50.76z M77.69,122.98l0.02-38.41l11.17-6.43l-0.01,51.27
	L77.69,122.98z M70.41,37.9L37.22,57.05l-11.31-6.5L70.4,24.87L70.41,37.9z M88.88,48.52c-5.77,3.3-33.27,19.19-33.27,19.19
	l-11.19-6.46l44.45-25.66C88.87,35.58,88.87,44.8,88.88,48.52z M37.25,65.41l33.17,19.17L70.4,97.5L26.03,71.89L37.25,65.41z
	 M70.39,105.87l-0.02,12.89L26.04,93.18l11.2-6.48L70.39,105.87z M37.23,107.95l33.15,19.19l0.01,13.02L25.94,114.5L37.23,107.95z
	 M62.87,71.87l44.42-25.65l-0.01,12.93l-33.22,19.2L62.87,71.87z M96.1,112.32l-0.01-38.39l11.16-6.42v51.23L96.1,112.32z
	 M114.49,101.67l0-38.35l11.31-6.5v51.38L114.49,101.67z"/>
</svg>
